<?xml version="1.0" encoding="UTF-8"?>
<!DOCTYPE svg PUBLIC "-//W3C//DTD SVG 1.1//EN" "http://www.w3.org/Graphics/SVG/1.1/DTD/svg11.dtd">
<!-- Creator: CorelDRAW -->
<svg xmlns="http://www.w3.org/2000/svg" xml:space="preserve" width="103px" height="103px" version="1.1" style="shape-rendering:geometricPrecision; text-rendering:geometricPrecision; image-rendering:optimizeQuality; fill-rule:evenodd; clip-rule:evenodd"
viewBox="0 0 103 103"
 xmlns:xlink="http://www.w3.org/1999/xlink"
 xmlns:xodm="http://www.corel.com/coreldraw/odm/2003">
 <defs>
  <style type="text/css">
   <![CDATA[
    .fil2 {fill:none}
    .fil1 {fill:#006633;fill-rule:nonzero}
    .fil0 {fill:#F4F4F2;fill-opacity:0.800000}
   ]]>
  </style>
   <clipPath id="id0">
    <path d="M21 2l60 0c11,0 20,9 20,20l0 60c0,11 -9,20 -20,20l-60 0c-11,0 -20,-9 -20,-20l0 -60c0,-11 9,-20 20,-20z"/>
   </clipPath>
   <clipPath id="id1">
    <path d="M21 2l60 0c11,0 20,9 20,20l0 60c0,11 -9,20 -20,20l-60 0c-11,0 -20,-9 -20,-20l0 -60c0,-11 9,-20 20,-20z"/>
   </clipPath>
 </defs>
 <g id="Layer_x0020_1">
  <metadata id="CorelCorpID_0Corel-Layer"/>
  <g style="clip-path:url(#id0)">
   <polygon class="fil0" points="1,2 101,2 101,102 1,102 "/>
  </g>
  <g style="clip-path:url(#id1)">
   <g id="_2592381996144">
    <path id="_1" class="fil1" d="M-1.4 -3.49c2.66,1.09 5.23,2.35 7.74,3.71 3.84,2.09 7.51,4.44 11.03,6.95 3.53,2.5 6.97,5.12 10.35,7.76 3.38,2.64 6.72,5.31 10.09,7.91 3.37,2.58 6.79,5.09 10.28,7.44 3.51,2.33 7.12,4.45 10.84,6.32l2.81 1.33c0.95,0.41 1.92,0.79 2.87,1.18 0.95,0.42 1.94,0.71 2.92,1.05 0.97,0.33 1.94,0.68 2.94,0.92 3.95,1.18 8.04,1.76 12.12,2.06l3.07 0.15 3.08 -0.08 1.54 -0.05 1.54 -0.16 3.07 -0.31 5.02 -0.5 -2.44 4.31c-0.64,1.14 -1.27,2.16 -1.93,3.21 -0.65,1.04 -1.32,2.07 -2.01,3.08 -1.36,2.04 -2.78,4.02 -4.24,5.98 -2.93,3.92 -6.04,7.69 -9.32,11.32 -6.58,7.22 -13.83,13.92 -21.9,19.56 -1.99,1.45 -4.08,2.75 -6.16,4.07l-3.19 1.87c-1.06,0.63 -2.18,1.17 -3.26,1.76 -4.39,2.26 -8.92,4.28 -13.64,5.83l-1.76 0.6 -1.78 0.52c-1.2,0.33 -2.39,0.7 -3.59,0.99 -2.43,0.54 -4.84,1.13 -7.3,1.46l-1.84 0.3c-0.31,0.04 -0.62,0.1 -0.92,0.14l-0.93 0.09 -3.71 0.36c-0.62,0.07 -1.24,0.08 -1.86,0.1l-1.86 0.07c-1.25,0.03 -2.49,0.11 -3.73,0.05 -1.32,-0.01 -2.63,-0.06 -3.94,-0.14l0 -5.9c1.34,0.09 2.68,0.15 4.02,0.17 1.16,0.06 2.32,-0.01 3.48,-0.04l1.74 -0.05c0.57,-0.02 1.15,-0.02 1.73,-0.09l3.46 -0.33 0.87 -0.08c0.29,-0.03 0.57,-0.09 0.86,-0.13l1.71 -0.27c2.3,-0.3 4.56,-0.85 6.83,-1.34 1.13,-0.27 2.23,-0.62 3.35,-0.92l1.68 -0.47 1.65 -0.57c4.42,-1.43 8.69,-3.32 12.84,-5.44 1.03,-0.55 2.09,-1.06 3.09,-1.65l3.03 -1.76c1.98,-1.25 3.97,-2.48 5.87,-3.85 7.69,-5.35 14.75,-11.66 21.15,-18.58 3.2,-3.46 6.24,-7.08 9.11,-10.83 1.43,-1.88 2.82,-3.78 4.15,-5.73 0.66,-0.97 1.32,-1.94 1.95,-2.93 0.63,-0.97 1.27,-2 1.81,-2.94l2.59 3.8 -3.32 0.31 -1.66 0.15 -1.67 0.03c-1.11,0.02 -2.23,0.05 -3.34,0.05l-3.34 -0.19c-4.43,-0.36 -8.87,-1.1 -13.11,-2.44 -1.08,-0.27 -2.12,-0.67 -3.16,-1.04 -1.04,-0.38 -2.1,-0.72 -3.11,-1.18 -1.01,-0.43 -2.04,-0.86 -3.04,-1.31l-2.97 -1.46c-3.9,-2.04 -7.64,-4.32 -11.22,-6.79 -7.16,-4.97 -13.77,-10.5 -20.37,-15.91 -3.3,-2.71 -6.63,-5.36 -10.02,-7.88 -3.39,-2.54 -6.9,-4.89 -10.53,-6.98 -2,-1.14 -4.03,-2.22 -6.11,-3.18l0 -3.46zm0 48.06c0.65,0.36 1.29,0.72 1.94,1.08 4.19,2.34 8.36,4.68 12.64,6.79 4.28,2.1 8.7,3.91 13.29,5.17 4.58,1.27 9.32,1.99 14.1,2.15 4.78,0.15 9.58,-0.27 14.31,-1.07 -4.69,1.01 -9.49,1.63 -14.32,1.68 -0.6,0.01 -1.2,0.04 -1.81,0.02l-1.81 -0.08c-0.6,-0.04 -1.21,-0.04 -1.81,-0.1l-1.8 -0.19c-1.21,-0.1 -2.4,-0.32 -3.6,-0.52 -1.2,-0.18 -2.37,-0.48 -3.56,-0.74 -4.72,-1.12 -9.29,-2.8 -13.7,-4.79 -4.43,-1.96 -8.7,-4.22 -12.95,-6.43l-0.92 -0.48 0 -2.49z"/>
   </g>
  </g>
  <path class="fil2" d="M21 2l60 0c11,0 20,9 20,20l0 60c0,11 -9,20 -20,20l-60 0c-11,0 -20,-9 -20,-20l0 -60c0,-11 9,-20 20,-20z"/>
 </g>
</svg>
