<?xml version="1.0" encoding="UTF-8"?>
<!DOCTYPE svg PUBLIC "-//W3C//DTD SVG 1.1//EN" "http://www.w3.org/Graphics/SVG/1.1/DTD/svg11.dtd">
<!-- Creator: CorelDRAW -->
<svg xmlns="http://www.w3.org/2000/svg" xml:space="preserve" width="20px" height="17px" version="1.1" style="shape-rendering:geometricPrecision; text-rendering:geometricPrecision; image-rendering:optimizeQuality; fill-rule:evenodd; clip-rule:evenodd"
viewBox="0 0 20 16.72"
 xmlns:xlink="http://www.w3.org/1999/xlink"
 xmlns:xodm="http://www.corel.com/coreldraw/odm/2003">
 <defs>
  <style type="text/css">
   <![CDATA[
    .fil0 {fill:#53381D}
   ]]>
  </style>
 </defs>
 <g id="Layer_x0020_1">
  <metadata id="CorelCorpID_0Corel-Layer"/>
  <path class="fil0" d="M9.96 2.33c0,1.03 1,1.72 1.96,2.68 0.54,0.54 1.9,1.77 2.26,2.3l-11.9 0c-1.22,0 -2.28,0.28 -2.28,1.69 0,1.44 1.16,1.69 2.28,1.69l11.9 0c-0.28,0.41 -2.71,2.74 -3.4,3.43 -0.46,0.47 -0.82,0.71 -0.82,1.54 0,1.06 1.49,2.62 3.1,0.99l5.1 -5.1c1.24,-1.24 1.84,-1.41 1.84,-2.81 0,-0.72 -1.34,-1.8 -1.79,-2.25l-5.11 -5.11c-0.43,-0.44 -0.68,-0.74 -1.45,-0.74 -0.88,0 -1.69,0.82 -1.69,1.69z"/>
 </g>
</svg>
