<?xml version="1.0" encoding="UTF-8"?>
<!DOCTYPE svg PUBLIC "-//W3C//DTD SVG 1.1//EN" "http://www.w3.org/Graphics/SVG/1.1/DTD/svg11.dtd">
<!-- Creator: CorelDRAW -->
<svg xmlns="http://www.w3.org/2000/svg" xml:space="preserve" width="20px" height="17px" version="1.1" style="shape-rendering:geometricPrecision; text-rendering:geometricPrecision; image-rendering:optimizeQuality; fill-rule:evenodd; clip-rule:evenodd"
viewBox="0 0 20 16.72"
 xmlns:xlink="http://www.w3.org/1999/xlink"
 xmlns:xodm="http://www.corel.com/coreldraw/odm/2003">
 <defs>
  <style type="text/css">
   <![CDATA[
    .fil0 {fill:#006633;fill-rule:nonzero}
   ]]>
  </style>
   <mask id="id0">
  <linearGradient id="id1" gradientUnits="userSpaceOnUse" x1="-402.3" y1="-666.54" x2="55.57" y2="-263.02">
   <stop offset="0" style="stop-opacity:1; stop-color:white"/>
   <stop offset="1" style="stop-opacity:0; stop-color:white"/>
  </linearGradient>
    <rect style="fill:url(#id1)" x="-179.89" y="-696.96" width="375.45" height="412.67"/>
   </mask>
 </defs>
 <g id="Layer_x0020_1">
  <metadata id="CorelCorpID_0Corel-Layer"/>
  <path class="fil0" style="mask:url(#id0)" d="M-179.68 -696.75c9.84,4 19.38,8.7 28.66,13.73 14.19,7.73 27.78,16.43 40.82,25.73 13.08,9.25 25.79,18.92 38.3,28.72 12.53,9.76 24.89,19.64 37.36,29.26 12.49,9.58 25.13,18.85 38.06,27.55 12.98,8.62 26.35,16.49 40.12,23.38l10.41 4.95c3.53,1.5 7.1,2.9 10.64,4.36 3.51,1.54 7.17,2.64 10.77,3.89 3.62,1.22 7.21,2.52 10.92,3.39 14.61,4.39 29.73,6.52 44.85,7.64l11.37 0.54 11.4 -0.3 5.7 -0.17 5.69 -0.58 11.37 -1.15 18.59 -1.88 -9.03 15.96c-2.39,4.24 -4.7,8 -7.15,11.89 -2.42,3.85 -4.9,7.65 -7.43,11.41 -5.03,7.54 -10.32,14.89 -15.71,22.15 -10.85,14.48 -22.34,28.46 -34.51,41.87 -24.35,26.75 -51.17,51.53 -81.04,72.42 -7.37,5.35 -15.12,10.18 -22.82,15.07l-11.81 6.92c-3.93,2.33 -8.05,4.33 -12.07,6.5 -16.24,8.37 -33.03,15.87 -50.48,21.58l-6.5 2.25 -6.63 1.89c-4.42,1.23 -8.81,2.6 -13.27,3.69 -8.98,1.98 -17.91,4.19 -27.04,5.42l-6.81 1.09c-1.13,0.16 -2.26,0.38 -3.41,0.51l-3.43 0.34 -13.74 1.33c-2.28,0.28 -4.58,0.29 -6.88,0.38l-6.89 0.24c-4.6,0.12 -9.2,0.41 -13.8,0.21 -4.86,-0.06 -9.72,-0.24 -14.58,-0.53l0 -21.83c4.96,0.34 9.92,0.55 14.89,0.63 4.29,0.2 8.58,-0.07 12.87,-0.17l6.43 -0.19c2.14,-0.07 4.29,-0.07 6.42,-0.33l12.81 -1.21 3.21 -0.29c1.06,-0.12 2.12,-0.32 3.18,-0.48l6.35 -1c8.52,-1.1 16.87,-3.16 25.27,-4.97 4.17,-0.99 8.28,-2.28 12.42,-3.41l6.21 -1.74 6.1 -2.1c16.37,-5.28 32.19,-12.29 47.55,-20.14 3.81,-2.05 7.71,-3.91 11.43,-6.1l11.21 -6.53c7.32,-4.63 14.69,-9.17 21.73,-14.25 28.48,-19.81 54.59,-43.17 78.3,-68.77 11.85,-12.82 23.1,-26.21 33.71,-40.09 5.27,-6.95 10.45,-14 15.35,-21.2 2.47,-3.59 4.89,-7.21 7.23,-10.86 2.33,-3.6 4.7,-7.41 6.71,-10.88l9.56 14.07 -12.28 1.13 -6.14 0.56 -6.18 0.13c-4.12,0.06 -8.24,0.17 -12.36,0.19l-12.36 -0.7c-16.42,-1.37 -32.83,-4.08 -48.54,-9.04 -3.99,-1.02 -7.84,-2.47 -11.7,-3.85 -3.86,-1.4 -7.78,-2.66 -11.5,-4.36 -3.76,-1.63 -7.55,-3.19 -11.28,-4.86l-10.96 -5.42c-14.45,-7.53 -28.29,-16 -41.56,-25.14 -26.47,-18.39 -50.97,-38.85 -75.4,-58.88 -12.22,-10.03 -24.52,-19.83 -37.1,-29.18 -12.55,-9.38 -25.51,-18.1 -38.97,-25.84 -7.38,-4.22 -14.91,-8.2 -22.61,-11.75l0 -12.8zm0 177.88c2.39,1.32 4.78,2.66 7.17,3.99 15.53,8.68 30.98,17.35 46.82,25.14 15.82,7.8 32.18,14.5 49.18,19.16 16.97,4.68 34.52,7.36 52.2,7.93 17.68,0.57 35.45,-0.97 52.98,-3.94 -17.38,3.72 -35.13,6.04 -53.01,6.23 -2.23,0.01 -4.47,0.12 -6.7,0.05l-6.71 -0.3c-2.23,-0.13 -4.47,-0.14 -6.7,-0.36l-6.68 -0.71c-4.47,-0.38 -8.88,-1.18 -13.3,-1.93 -4.45,-0.64 -8.79,-1.78 -13.18,-2.73 -17.48,-4.13 -34.41,-10.38 -50.74,-17.71 -16.37,-7.29 -32.17,-15.63 -47.93,-23.82l-3.4 -1.77 0 -9.23z"/>
 </g>
</svg>
