<?xml version="1.0" encoding="UTF-8"?>
<!DOCTYPE svg PUBLIC "-//W3C//DTD SVG 1.1//EN" "http://www.w3.org/Graphics/SVG/1.1/DTD/svg11.dtd">
<!-- Creator: CorelDRAW -->
<svg xmlns="http://www.w3.org/2000/svg" xml:space="preserve" width="549px" height="603px" version="1.1" style="shape-rendering:geometricPrecision; text-rendering:geometricPrecision; image-rendering:optimizeQuality; fill-rule:evenodd; clip-rule:evenodd"
viewBox="0 0 549 603.48"
 xmlns:xlink="http://www.w3.org/1999/xlink"
 xmlns:xodm="http://www.corel.com/coreldraw/odm/2003">
 <defs>
  <style type="text/css">
   <![CDATA[
    .fil0 {fill:#006633;fill-rule:nonzero}
   ]]>
  </style>
   <mask id="id0">
  <linearGradient id="id1" gradientUnits="userSpaceOnUse" x1="-326.19" y1="44.31" x2="344.08" y2="635.02">
   <stop offset="0" style="stop-opacity:1; stop-color:white"/>
   <stop offset="1" style="stop-opacity:0; stop-color:white"/>
  </linearGradient>
    <rect style="fill:url(#id1)" x="-0.51" y="-0.11" width="549.42" height="603.9"/>
   </mask>
 </defs>
 <g id="Layer_x0020_1">
  <metadata id="CorelCorpID_0Corel-Layer"/>
  <path class="fil0" style="mask:url(#id0)" d="M-0.3 0.1c14.4,5.85 28.36,12.73 41.96,20.1 20.77,11.31 40.66,24.05 59.75,37.66 19.14,13.55 37.76,27.7 56.07,42.04 18.34,14.29 36.44,28.76 54.69,42.84 18.28,14.02 36.78,27.6 55.72,40.33 18.99,12.62 38.56,24.13 58.72,34.23l15.25 7.23c5.16,2.21 10.38,4.25 15.56,6.39 5.14,2.26 10.5,3.87 15.78,5.69 5.3,1.79 10.56,3.7 15.98,4.97 21.39,6.42 43.53,9.54 65.65,11.18l16.65 0.79 16.69 -0.44 8.35 -0.24 8.32 -0.86 16.65 -1.68 27.21 -2.75 -13.21 23.36c-3.51,6.21 -6.89,11.71 -10.48,17.41 -3.54,5.64 -7.17,11.2 -10.88,16.7 -7.36,11.04 -15.09,21.8 -22.99,32.43 -15.88,21.19 -32.71,41.66 -50.51,61.29 -35.66,39.16 -74.92,75.43 -118.65,106.02 -10.78,7.83 -22.13,14.89 -33.39,22.05l-17.3 10.14c-5.74,3.41 -11.78,6.33 -17.67,9.51 -23.77,12.26 -48.34,23.24 -73.89,31.6l-9.53 3.29 -9.69 2.77c-6.48,1.79 -12.9,3.8 -19.43,5.39 -13.14,2.9 -26.22,6.14 -39.58,7.94l-9.97 1.59c-1.66,0.25 -3.32,0.57 -4.99,0.76l-5.02 0.49 -20.11 1.95c-3.35,0.41 -6.72,0.43 -10.08,0.56l-10.09 0.34c-6.73,0.19 -13.46,0.6 -20.2,0.31 -7.11,-0.09 -14.23,-0.34 -21.34,-0.77l0 -31.96c7.25,0.5 14.52,0.8 21.8,0.92 6.27,0.3 12.55,-0.09 18.83,-0.24l9.42 -0.29c3.13,-0.1 6.28,-0.1 9.4,-0.48l18.75 -1.77 4.7 -0.43c1.55,-0.17 3.1,-0.47 4.65,-0.69l9.31 -1.47c12.47,-1.61 24.69,-4.63 36.98,-7.27 6.1,-1.46 12.12,-3.35 18.19,-4.99l9.08 -2.56 8.93 -3.06c23.97,-7.74 47.12,-18 69.61,-29.5 5.57,-2.99 11.29,-5.71 16.74,-8.93l16.41 -9.55c10.71,-6.77 21.51,-13.42 31.81,-20.86 41.68,-28.99 79.91,-63.2 114.61,-100.68 17.35,-18.76 33.82,-38.37 49.35,-58.68 7.72,-10.18 15.3,-20.49 22.48,-31.03 3.61,-5.25 7.16,-10.56 10.58,-15.9 3.41,-5.28 6.88,-10.85 9.83,-15.94l13.99 20.61 -17.98 1.65 -8.99 0.82 -9.05 0.19c-6.03,0.09 -12.06,0.25 -18.09,0.28l-18.1 -1.03c-24.03,-2 -48.05,-5.97 -71.04,-13.22 -5.85,-1.5 -11.48,-3.63 -17.14,-5.64 -5.65,-2.06 -11.38,-3.9 -16.83,-6.39 -5.5,-2.38 -11.05,-4.67 -16.51,-7.11l-16.06 -7.93c-21.14,-11.03 -41.41,-23.43 -60.83,-36.81 -38.75,-26.92 -74.61,-56.87 -110.38,-86.19 -17.88,-14.69 -35.89,-29.03 -54.3,-42.71 -18.37,-13.75 -37.34,-26.5 -57.06,-37.83 -10.8,-6.18 -21.82,-12.01 -33.09,-17.2l0 -18.74zm0 260.39c3.5,1.94 7,3.89 10.5,5.84 22.73,12.7 45.34,25.4 68.53,36.8 23.17,11.42 47.12,21.23 71.99,28.05 24.85,6.85 50.54,10.78 76.42,11.61 25.89,0.84 51.89,-1.41 77.55,-5.77 -25.44,5.45 -51.42,8.85 -77.59,9.12 -3.27,0.02 -6.54,0.19 -9.81,0.08l-9.81 -0.44c-3.27,-0.19 -6.56,-0.21 -9.82,-0.54l-9.78 -1.02c-6.55,-0.56 -13,-1.73 -19.47,-2.83 -6.52,-0.93 -12.87,-2.61 -19.29,-4 -25.59,-6.04 -50.37,-15.19 -74.28,-25.93 -23.96,-10.66 -47.1,-22.87 -70.17,-34.87l-4.97 -2.58 0 -13.52z"/>
 </g>
</svg>
